<?xml version="1.0" standalone="no"?>
<!DOCTYPE svg PUBLIC "-//W3C//DTD SVG 20010904//EN"
 "http://www.w3.org/TR/2001/REC-SVG-20010904/DTD/svg10.dtd">
<svg version="1.0" xmlns="http://www.w3.org/2000/svg"
 width="512.000000pt" height="512.000000pt" viewBox="0 0 512.000000 512.000000"
 preserveAspectRatio="xMidYMid meet">

<g transform="translate(0.000000,512.000000) scale(0.100000,-0.100000)"
fill="#000000" stroke="none">
<path d="M1880 4316 c-357 -94 -674 -248 -965 -470 -82 -62 -421 -358 -463
-404 -17 -18 -23 -34 -20 -56 5 -40 473 -721 506 -735 13 -6 91 -11 177 -11
l155 0 0 -908 0 -909 23 -21 24 -22 1243 0 1243 0 24 22 23 21 0 909 0 908
155 0 c86 0 164 5 177 10 22 11 484 666 502 714 5 13 6 34 3 47 -6 23 -294
287 -447 409 -281 225 -645 405 -1000 495 -157 40 -179 36 -217 -39 -111 -220
-252 -316 -463 -316 -211 0 -352 96 -463 316 -14 28 -33 54 -42 58 -29 11 -88
5 -175 -18z m109 -185 c11 -21 45 -70 75 -107 l56 -69 0 -1347 0 -1348 -345 0
-345 0 0 744 c0 735 0 744 -21 769 l-20 27 -187 2 -187 3 -197 285 c-184 266
-196 286 -180 301 446 417 755 608 1207 744 61 19 113 34 117 34 4 1 17 -16
27 -38z m1272 8 c257 -75 489 -181 694 -317 141 -93 191 -133 393 -311 l151
-134 -93 -136 c-51 -75 -140 -203 -197 -286 l-105 -150 -186 -3 -187 -2 -20
-27 c-21 -25 -21 -34 -21 -769 l0 -744 -345 0 -345 0 0 1348 0 1347 56 69 c30
37 64 86 75 107 10 22 21 39 23 39 2 0 50 -14 107 -31z m-730 -337 c131 -4
153 -1 277 34 l22 6 -2 -283 -3 -283 -60 -20 c-87 -28 -323 -28 -410 0 l-60
20 -3 286 -2 286 52 -21 c42 -16 82 -21 189 -25z m-161 -718 c45 -10 122 -16
190 -16 68 0 145 6 190 16 41 9 76 16 78 16 1 0 1 -134 0 -297 l-3 -298 -65
-19 c-92 -27 -308 -27 -400 0 l-65 19 -3 298 c-1 163 -1 297 0 297 2 0 37 -7
78 -16z m5 -769 c90 -19 280 -19 370 0 38 8 73 15 77 15 5 0 8 -132 8 -294 l0
-294 -47 -16 c-68 -21 -157 -36 -223 -36 -66 0 -155 15 -222 36 l-48 16 0 294
c0 162 3 294 8 294 4 0 39 -7 77 -15z m190 -779 c112 0 176 5 213 16 l52 15 0
-313 0 -314 -270 0 -270 0 0 314 0 314 58 -16 c43 -13 97 -17 217 -16z m-445
-521 l0 -75 -345 0 -345 0 0 75 0 75 345 0 345 0 0 -75z m1570 0 l0 -75 -345
0 -345 0 0 75 0 75 345 0 345 0 0 -75z"/>
</g>
</svg>
