<?xml version="1.0" standalone="no"?>
<!DOCTYPE svg PUBLIC "-//W3C//DTD SVG 20010904//EN"
 "http://www.w3.org/TR/2001/REC-SVG-20010904/DTD/svg10.dtd">
<svg version="1.0" xmlns="http://www.w3.org/2000/svg"
 width="512.000000pt" height="512.000000pt" viewBox="0 0 512.000000 512.000000"
 preserveAspectRatio="xMidYMid meet">

<g transform="translate(0.000000,512.000000) scale(0.100000,-0.100000)"
fill="#000000" stroke="none">
<path d="M1385 4809 c-264 -66 -485 -125 -492 -132 -30 -30 -703 -1200 -703
-1222 0 -28 -2 -27 478 -424 l342 -283 0 -1257 0 -1258 23 -21 23 -22 1505 0
1506 0 21 23 22 23 0 1256 0 1255 367 304 c444 367 453 375 453 405 0 21 -675
1193 -704 1222 -7 7 -236 67 -509 134 l-497 122 -77 -41 c-322 -169 -810 -175
-1139 -13 -55 28 -109 50 -120 49 -10 -1 -235 -55 -499 -120z m438 -196 c7
-182 22 -255 77 -368 91 -187 251 -321 460 -386 108 -34 293 -34 400 0 214 66
367 195 460 386 55 112 70 185 77 368 5 138 8 157 22 153 9 -3 194 -49 411
-101 217 -53 400 -101 406 -108 13 -14 621 -1056 626 -1073 3 -11 -628 -543
-644 -544 -5 0 -8 157 -8 349 l0 350 -26 20 c-35 27 -59 26 -89 -4 l-25 -24 0
-1531 0 -1530 -1410 0 -1410 0 0 1530 0 1531 -25 24 c-30 30 -54 31 -89 4
l-26 -20 0 -350 c0 -192 -3 -349 -6 -349 -14 0 -649 534 -646 544 8 26 626
1078 636 1082 10 4 803 201 817 203 3 1 9 -70 12 -156z m239 92 c175 -62 277
-78 498 -78 162 0 212 3 295 21 85 18 216 58 289 88 18 7 19 2 14 -132 -4
-120 -9 -151 -35 -224 -36 -106 -87 -184 -166 -256 -147 -132 -351 -183 -542
-134 -199 51 -358 200 -421 395 -21 64 -27 107 -31 218 -3 75 -4 137 -2 137 2
0 48 -16 101 -35z m1908 -4325 l0 -50 -1410 0 -1410 0 0 50 0 50 1410 0 1410
0 0 -50z"/>
<path d="M1276 1579 l-26 -20 0 -150 c0 -136 2 -151 20 -169 29 -29 74 -26 99
6 19 24 21 40 21 166 0 134 -1 140 -25 163 -30 30 -54 31 -89 4z"/>
</g>
</svg>
