<?xml version="1.0" standalone="no"?>
<!DOCTYPE svg PUBLIC "-//W3C//DTD SVG 20010904//EN"
 "http://www.w3.org/TR/2001/REC-SVG-20010904/DTD/svg10.dtd">
<svg version="1.0" xmlns="http://www.w3.org/2000/svg"
 width="3200.000000pt" height="3200.000000pt" viewBox="0 0 3200.000000 3200.000000"
 preserveAspectRatio="xMidYMid meet">

<g transform="translate(0.000000,3200.000000) scale(0.100000,-0.100000)"
fill="#000000" stroke="none">
<path d="M9930 19882 c-40 -26 -88 -71 -205 -192 -285 -295 -509 -481 -865
-720 -69 -46 -148 -100 -176 -120 -28 -19 -87 -59 -130 -89 -357 -246 -542
-431 -741 -741 -95 -149 -196 -352 -243 -490 -12 -36 -26 -74 -31 -85 -30 -68
-97 -332 -119 -470 -6 -38 -16 -92 -22 -120 -6 -27 -14 -77 -18 -110 -4 -33
-12 -94 -18 -135 -36 -246 -54 -708 -32 -811 13 -61 85 -187 104 -182 8 2 24
40 106 253 53 138 162 358 253 512 84 141 273 419 319 468 13 14 31 38 42 54
10 15 60 72 111 126 l94 98 -31 83 c-28 76 -31 96 -32 205 l-1 121 40 79 c31
61 53 89 98 125 79 63 165 104 263 123 100 20 129 20 196 1 117 -32 168 -58
223 -114 21 -23 48 -41 58 -41 18 0 233 108 309 157 21 12 40 23 43 23 14 0
103 66 140 104 75 76 137 180 208 351 105 254 191 697 218 1123 16 259 -5 383
-72 417 -36 19 -58 18 -89 -3z m-170 -531 c0 -101 -136 -281 -311 -412 -167
-125 -308 -228 -369 -269 -36 -24 -92 -65 -125 -90 -33 -26 -70 -52 -82 -58
-12 -7 -27 -18 -35 -25 -7 -7 -20 -18 -29 -23 -39 -22 -279 -224 -367 -308
-101 -96 -221 -256 -290 -386 -13 -25 -27 -47 -31 -50 -7 -6 -46 -85 -114
-230 -60 -129 -203 -516 -270 -730 -93 -300 -131 -428 -152 -510 -26 -109 -48
-160 -65 -160 -19 0 -10 157 16 281 26 123 86 367 104 424 6 17 33 102 61 190
87 269 124 375 175 492 8 17 14 34 14 38 0 14 118 243 166 322 124 206 308
412 549 616 55 46 119 97 142 113 160 113 231 165 408 297 110 83 202 153 205
156 3 3 50 45 105 93 55 48 138 125 185 172 46 47 90 86 97 86 8 0 13 -12 13
-29z m44 -307 c11 -11 16 -34 16 -77 0 -50 -6 -72 -30 -114 -42 -72 -60 -83
-147 -83 -70 0 -73 1 -73 23 0 46 174 267 209 267 5 0 17 -7 25 -16z m-305
-477 c22 -15 53 -48 68 -74 24 -42 28 -58 28 -128 0 -75 -2 -84 -38 -142 -40
-66 -94 -111 -187 -158 -52 -26 -63 -27 -195 -28 -101 0 -155 4 -195 16 -129
38 -297 31 -440 -18 -41 -13 -76 -25 -77 -25 -2 0 -3 9 -3 21 0 49 134 131
241 147 66 10 242 -1 427 -28 85 -12 142 -2 213 37 66 35 106 80 120 134 22
81 -14 144 -86 154 -80 11 -159 -64 -106 -102 28 -19 26 -47 -5 -72 -37 -29
-94 -28 -128 4 -23 21 -26 32 -26 88 0 82 28 123 120 176 38 22 88 30 162 27
53 -3 77 -9 107 -29z m-1420 -1429 c0 -89 -13 -131 -64 -210 -35 -56 -64 -72
-100 -56 -21 9 -25 18 -25 53 0 47 14 80 77 178 42 64 89 117 105 117 5 0 8
-37 7 -82z"/>
<path d="M7045 19388 c-84 -48 -476 -379 -575 -485 -238 -254 -368 -437 -511
-717 l-87 -170 -148 2 c-145 3 -183 -1 -309 -31 -101 -23 -213 -89 -404 -235
-114 -88 -347 -321 -398 -399 -48 -73 -91 -175 -103 -246 -5 -29 -14 -76 -19
-106 -6 -29 -11 -101 -12 -160 0 -58 -8 -151 -17 -207 -23 -133 -51 -178 -223
-359 -75 -79 -144 -160 -154 -181 -27 -57 -17 -176 20 -235 56 -90 204 -220
272 -238 46 -13 111 -3 167 26 49 25 216 202 216 229 0 14 107 124 175 181
142 118 354 232 403 216 20 -7 14 -51 -10 -68 -13 -8 -81 -54 -152 -101 -165
-108 -224 -158 -307 -264 -73 -92 -147 -156 -231 -200 -97 -51 -66 -87 66 -77
100 8 197 42 372 130 72 37 135 67 140 67 5 0 22 7 37 15 35 18 184 67 287 94
275 73 534 187 697 307 177 130 346 343 408 516 34 93 55 186 55 246 0 77 16
80 43 6 13 -38 16 -67 12 -129 -7 -96 -23 -150 -82 -275 -106 -222 -297 -435
-500 -559 -198 -120 -403 -192 -761 -266 -45 -9 -51 -30 -62 -215 -10 -158
-34 -280 -80 -400 -34 -87 -82 -250 -91 -310 -5 -30 -13 -71 -19 -90 -18 -61
-12 -411 9 -530 38 -218 171 -482 328 -653 53 -58 60 -71 45 -81 -12 -7 -123
51 -156 82 -44 42 -108 128 -165 225 -29 48 -56 87 -61 87 -11 0 -20 -38 -20
-85 0 -115 -36 -325 -80 -470 -50 -164 -179 -513 -243 -657 -9 -21 -24 -55
-34 -75 -9 -21 -56 -119 -105 -218 -153 -311 -139 -297 -295 -306 -136 -8
-158 -12 -233 -47 -153 -71 -262 -201 -262 -312 0 -62 26 -109 72 -132 55 -27
75 -16 90 50 21 97 84 216 139 266 34 30 35 12 6 -61 -20 -49 -29 -92 -32
-157 -6 -102 2 -116 68 -116 58 0 81 26 114 131 31 99 64 148 115 169 34 14
60 1 60 -30 0 -19 -30 -98 -54 -140 -8 -14 -17 -44 -21 -67 -5 -40 -5 -41 25
-48 78 -17 231 25 300 83 50 41 239 320 439 647 130 212 199 319 330 515 69
102 148 220 175 264 28 43 77 114 109 157 l58 78 -39 58 c-52 79 -113 209
-150 323 -48 148 -65 291 -59 515 8 348 46 466 267 840 109 184 136 238 165
339 21 76 25 108 25 230 0 151 4 166 48 166 36 0 52 -51 52 -170 0 -96 -20
-225 -40 -262 -6 -10 -10 -22 -10 -28 0 -11 -82 -179 -120 -245 -12 -22 -58
-101 -100 -176 -123 -215 -147 -293 -173 -559 -19 -190 -8 -345 36 -546 17
-76 85 -244 124 -306 13 -21 23 -41 23 -45 0 -3 7 -14 15 -23 13 -14 14 -46 5
-244 -6 -125 -15 -248 -21 -274 -5 -26 -14 -76 -19 -112 -12 -75 -26 -144 -45
-215 -7 -27 -18 -70 -24 -95 -18 -73 -74 -251 -105 -337 -31 -84 -105 -231
-127 -252 -19 -17 -35 -21 -94 -21 -76 0 -141 -17 -215 -58 -48 -26 -120 -90
-120 -106 0 -5 -6 -17 -14 -25 -19 -22 -56 -135 -56 -171 0 -40 31 -70 74 -70
54 0 65 9 96 76 49 110 79 138 171 164 36 11 37 0 1 -42 -54 -64 -90 -181 -61
-199 23 -14 122 -10 146 6 12 8 25 30 28 48 12 53 56 125 107 173 81 76 94 39
31 -92 -23 -49 -33 -84 -31 -106 l3 -33 60 1 c72 1 155 31 218 79 43 33 89 95
166 224 42 71 199 394 246 506 21 50 46 109 56 132 11 23 19 47 19 53 0 5 4
18 10 28 15 27 100 233 100 243 0 5 14 38 30 74 17 36 30 68 30 71 0 3 6 20
13 37 35 82 85 247 107 353 5 23 18 77 29 120 10 44 29 129 41 189 12 61 28
142 35 180 37 180 47 313 42 513 -5 200 -11 232 -60 368 -44 120 -117 196
-227 237 -55 20 -96 21 -172 3 -149 -35 -296 -231 -358 -479 -20 -78 -22 -105
-18 -260 5 -165 7 -176 40 -267 32 -90 63 -155 109 -227 11 -18 18 -37 14 -43
-8 -13 -58 -13 -87 1 -47 22 -133 163 -162 264 -9 33 -21 74 -28 90 -6 17 -13
104 -15 195 -4 144 -2 176 16 253 40 169 98 286 208 419 108 132 229 187 383
174 132 -11 191 -35 270 -109 60 -58 108 -130 139 -212 13 -33 28 -69 33 -79
10 -19 16 -54 39 -211 17 -123 -11 -531 -41 -603 -6 -13 -10 -39 -10 -59 0
-20 -6 -62 -14 -92 -13 -50 -39 -176 -50 -241 -2 -14 -24 -103 -49 -199 -25
-95 -43 -179 -41 -185 3 -6 44 -24 92 -39 224 -73 453 -233 667 -467 27 -30
95 -101 149 -157 108 -111 94 -104 241 -118 97 -8 98 0 12 104 -126 152 -210
318 -253 501 -20 84 -36 324 -29 420 17 228 72 390 193 570 94 141 226 255
395 346 287 152 656 168 836 36 50 -36 91 -74 91 -84 0 -12 -74 -10 -106 2
-15 6 -75 20 -133 32 -262 51 -548 -16 -761 -178 -69 -52 -186 -174 -229 -237
-130 -191 -187 -458 -156 -731 8 -72 19 -142 24 -156 5 -14 19 -61 31 -105 30
-108 87 -225 151 -310 55 -74 189 -209 245 -247 47 -32 44 -53 -11 -68 -38
-11 -94 -9 -368 14 -673 54 -728 55 -830 15 -99 -39 -176 -106 -251 -219 -56
-85 -71 -114 -90 -177 -29 -95 -15 -153 45 -183 72 -37 108 -25 141 50 75 169
103 214 183 298 49 53 109 92 140 92 8 0 15 -2 15 -5 0 -3 -25 -36 -55 -73
-91 -110 -152 -261 -139 -344 8 -47 26 -58 98 -58 65 0 74 9 106 109 27 85 51
122 115 177 95 81 225 100 225 33 0 -14 -32 -43 -66 -59 -28 -13 -133 -97
-139 -110 -3 -8 -16 -35 -30 -60 -13 -25 -24 -53 -24 -62 -2 -36 -18 -35 524
-18 165 5 424 10 575 11 347 2 825 23 866 38 75 29 85 151 18 231 -14 17 -24
37 -21 44 3 8 32 26 64 41 183 83 300 178 405 326 98 138 186 334 219 488 27
125 36 410 20 577 -29 279 -127 585 -261 809 -16 28 -33 57 -37 65 -18 41
-157 216 -237 298 -164 169 -301 271 -516 385 -112 59 -317 148 -442 191 -42
14 -98 35 -125 47 -51 22 -190 69 -204 69 -5 0 -32 10 -61 23 -29 13 -73 32
-98 42 -25 10 -61 24 -80 33 -45 19 -170 102 -170 113 0 24 41 25 150 3 158
-32 364 -47 550 -40 139 6 332 33 400 55 14 5 52 16 85 26 245 68 504 225 711
430 114 113 156 174 158 227 0 29 -5 44 -19 54 -32 24 -113 42 -217 50 -115 8
-125 20 -54 69 119 82 536 474 536 503 0 6 6 15 14 19 7 4 30 33 52 63 21 30
41 57 44 60 9 8 150 227 150 233 0 3 27 51 60 107 33 56 60 103 60 105 0 3 24
55 54 117 86 179 151 354 234 628 86 280 95 330 96 500 0 131 -2 149 -22 187
-23 45 -47 63 -81 63 -27 0 -96 -72 -156 -162 -97 -144 -281 -338 -420 -443
-44 -33 -85 -65 -92 -71 -24 -23 -242 -164 -308 -200 -38 -20 -81 -45 -95 -54
-14 -10 -61 -37 -105 -60 -261 -139 -255 -136 -405 -218 -122 -67 -364 -227
-510 -337 -118 -90 -305 -272 -394 -385 -37 -47 -86 -110 -110 -140 -24 -30
-65 -86 -92 -125 -85 -124 -164 -244 -164 -248 0 -2 -23 -44 -51 -93 -52 -89
-249 -476 -249 -487 0 -4 -11 -30 -24 -59 -13 -29 -36 -84 -50 -123 -15 -38
-34 -75 -42 -82 -26 -19 -60 4 -113 76 -77 106 -211 347 -211 381 0 9 -4 20
-8 25 -22 26 -71 194 -96 331 -7 43 -28 158 -45 254 -56 308 -103 464 -195
646 -25 50 -46 98 -46 107 0 9 41 55 90 104 104 99 164 185 231 328 78 167
104 253 139 455 22 132 27 436 9 580 -5 47 -14 128 -19 180 -30 329 -41 397
-66 438 -16 24 -47 28 -79 10z m-45 -386 c0 -31 -10 -47 -58 -99 -226 -243
-351 -422 -478 -680 -74 -151 -107 -274 -113 -415 -1 -23 -6 -28 -25 -28 -14
0 -38 12 -55 26 -29 24 -31 31 -31 87 1 137 79 339 224 577 116 188 199 296
330 425 75 74 185 157 197 149 5 -3 9 -22 9 -42z m2 -340 c5 -5 9 -30 10 -57
1 -53 -17 -75 -60 -75 -36 0 -91 38 -98 67 -9 32 13 70 45 81 27 9 87 0 103
-16z m-173 -268 c76 -21 119 -58 126 -109 9 -55 -11 -80 -62 -79 -21 0 -55 8
-75 18 -46 22 -118 90 -118 112 0 16 52 74 66 74 4 0 33 -7 63 -16z m-62 -339
c52 -21 68 -54 54 -115 -5 -23 -15 -47 -23 -52 -21 -14 -110 0 -140 22 -15 11
-32 20 -38 20 -43 0 -68 101 -33 136 21 21 116 15 180 -11z m3714 15 c34 0
-18 -123 -77 -185 -118 -122 -437 -337 -729 -491 -60 -32 -137 -74 -170 -94
-33 -20 -103 -58 -155 -84 -52 -27 -99 -52 -105 -56 -5 -4 -37 -22 -70 -40
-68 -37 -85 -47 -250 -155 -179 -117 -205 -139 -483 -404 -190 -181 -378 -401
-467 -546 -10 -16 -42 -67 -72 -112 -29 -46 -53 -85 -53 -88 0 -2 -13 -24 -29
-47 -16 -24 -52 -83 -81 -131 -73 -125 -111 -174 -143 -186 -42 -15 -45 9 -7
64 17 25 51 86 76 135 43 88 120 230 163 300 11 19 24 42 28 50 5 13 86 136
164 250 122 179 478 542 689 701 50 39 258 179 264 179 3 0 50 27 106 60 56
33 104 60 106 60 2 0 23 14 46 30 22 17 45 30 49 30 4 0 61 31 126 68 65 38
145 84 178 102 33 18 73 40 89 49 271 149 509 311 656 445 63 58 121 103 128
101 8 -3 18 -5 23 -5z m-4858 -179 c6 -6 -4 -15 -24 -24 -72 -31 -247 -185
-319 -282 -99 -134 -141 -284 -158 -569 -6 -97 -10 -121 -24 -130 -14 -8 -21
-6 -33 9 -29 36 -5 378 35 515 51 173 265 439 392 487 35 13 116 9 131 -6z
m352 -14 c12 -19 13 -30 4 -55 -9 -26 -18 -33 -47 -37 -21 -4 -47 -10 -60 -16
-79 -32 -97 13 -29 78 62 60 106 70 132 30z m641 -123 c69 -33 79 -47 77 -108
-2 -64 -16 -75 -84 -66 -46 6 -58 13 -105 63 -60 61 -68 93 -33 128 25 25 66
20 145 -17z m-994 -52 c10 -38 -8 -58 -73 -77 -35 -11 -85 -32 -110 -47 -50
-30 -59 -33 -59 -19 0 11 157 145 180 154 31 11 58 7 62 -11z m530 -62 c13 -5
42 -14 65 -20 40 -10 79 -37 69 -47 -3 -3 -80 -9 -173 -13 -162 -8 -227 -20
-311 -56 -18 -8 -38 -14 -46 -14 -24 0 -141 -62 -217 -116 -94 -66 -165 -142
-203 -218 -15 -31 -33 -55 -40 -53 -6 2 -12 27 -14 55 -6 108 91 219 294 336
88 51 255 108 399 136 108 21 146 23 177 10z m-1114 -82 c8 -70 -65 -159 -104
-127 -26 21 -12 107 22 137 36 32 78 27 82 -10z m5251 -16 c13 -24 -1 -83 -29
-123 -48 -66 -203 -115 -353 -110 -78 3 14 79 238 197 39 20 74 40 80 45 16
15 54 10 64 -9z m-4132 -194 c18 -5 40 -19 48 -31 34 -49 9 -238 -47 -353 -41
-84 -162 -214 -246 -264 -80 -47 -206 -92 -322 -116 -67 -13 -116 -15 -232
-11 -81 3 -152 8 -158 12 -10 6 4 44 20 55 14 9 70 113 152 280 44 91 98 191
120 222 38 58 134 145 188 173 87 45 373 65 477 33z m-1210 -58 c23 -47 52
-224 39 -237 -9 -10 -38 9 -51 33 -33 59 -78 124 -105 148 -24 21 -29 32 -24
49 24 79 103 83 141 7z m1561 -112 c13 -13 16 -67 4 -84 -11 -16 -48 -34 -71
-34 -29 0 -100 51 -101 73 -1 42 135 78 168 45z m-1790 -17 c156 -80 233 -304
155 -455 -28 -54 -73 -105 -117 -131 -76 -44 -186 -51 -186 -11 0 24 34 56 73
70 52 17 123 79 147 126 45 88 9 210 -83 281 -74 56 -87 70 -87 94 0 47 38 57
98 26z m5196 -17 c82 -17 95 -26 89 -58 -6 -31 -25 -48 -89 -80 -83 -42 -159
-31 -256 34 -60 41 -113 103 -103 120 9 15 261 4 359 -16z m-520 -145 c61 -31
135 -107 162 -167 75 -166 -39 -461 -208 -540 -71 -33 -209 -72 -294 -82 -43
-5 -142 -16 -219 -25 -241 -26 -311 -44 -432 -111 -153 -84 -259 -176 -426
-366 -78 -89 -102 -99 -94 -40 7 55 77 148 237 315 94 98 215 185 311 223 107
41 181 58 529 120 269 47 392 96 456 179 25 34 64 142 64 180 0 81 -70 181
-146 208 -27 9 -58 17 -69 17 -24 0 -101 -34 -119 -53 -27 -26 -46 -77 -46
-120 0 -36 4 -46 24 -57 23 -12 42 -11 109 6 34 8 57 -10 57 -45 -1 -33 -16
-53 -60 -80 -73 -44 -160 -15 -210 72 -29 48 -31 58 -27 127 3 54 11 87 28
119 32 58 101 118 158 136 60 20 161 12 215 -16z m-4666 -81 c36 -36 -18 -155
-65 -146 -36 7 -56 94 -33 139 12 22 78 27 98 7z m1746 -52 c-1 -60 -19 -76
-86 -76 -38 0 -59 7 -98 33 -59 39 -66 51 -39 78 18 18 31 19 122 17 l102 -3
-1 -49z m-100 -209 c28 -21 23 -67 -10 -95 -23 -20 -36 -23 -74 -20 -93 9
-173 73 -141 112 18 21 197 23 225 3z m2450 -127 c20 -7 26 -16 26 -40 0 -35
-17 -45 -140 -80 -142 -41 -165 -48 -222 -66 -45 -14 -61 -15 -70 -6 -9 9 -5
20 18 49 44 56 240 152 311 153 28 0 63 -4 77 -10z m-2788 -35 c26 -14 65 -30
87 -36 43 -11 89 -54 85 -77 -4 -20 -67 -52 -103 -52 -81 0 -152 44 -179 110
-31 78 20 103 110 55z m842 -148 c2 -57 -1 -94 -9 -103 -33 -39 -109 20 -109
85 0 50 51 113 89 109 26 -3 26 -4 29 -91z m-1156 25 c20 -28 62 -52 125 -72
87 -27 81 -74 -12 -100 -38 -11 -51 -10 -87 5 -24 9 -60 33 -80 53 -32 30 -38
43 -38 77 0 23 3 45 7 48 14 15 72 7 85 -11z m-1189 -183 c49 -26 69 -63 84
-155 15 -91 -62 -206 -158 -238 -103 -33 -174 -17 -226 51 -82 106 -46 251 80
323 45 26 62 30 125 30 40 0 83 -5 95 -11z m1085 -65 c50 -14 20 -38 -71 -58
-15 -4 -51 -17 -80 -30 -28 -13 -104 -41 -167 -61 -63 -21 -147 -53 -187 -73
-75 -37 -110 -36 -58 1 17 12 48 38 70 58 110 99 274 165 420 168 28 0 60 -2
73 -5z m1173 -58 c112 -34 225 -143 275 -265 68 -163 -19 -344 -193 -402 -221
-73 -450 86 -461 321 -6 119 15 175 97 260 38 38 83 76 102 85 43 18 121 19
180 1z m2047 -69 c152 -100 174 -325 46 -466 -42 -48 -80 -69 -173 -100 -81
-27 -208 -30 -218 -5 -9 25 25 50 105 77 155 54 236 128 248 229 10 88 -28
152 -102 168 -93 21 -188 -29 -182 -95 3 -26 7 -30 36 -33 24 -2 35 -10 42
-27 12 -30 -3 -76 -30 -93 -27 -17 -113 4 -141 35 -26 27 -42 120 -30 174 12
51 65 107 136 141 54 26 69 29 141 26 68 -3 87 -7 122 -31z m397 -43 c135 -30
190 -58 216 -106 14 -26 -5 -55 -48 -73 -63 -27 -151 -14 -211 32 -40 30 -112
124 -112 146 0 22 60 23 155 1z m-3331 -393 c3 -20 6 -68 6 -106 0 -145 -64
-291 -100 -226 -8 15 -6 45 6 118 11 63 15 126 11 179 -4 65 -1 88 11 105 l15
22 23 -28 c12 -15 24 -44 28 -64z m2396 44 c35 -32 23 -65 -37 -101 -59 -35
-127 -48 -172 -33 -73 26 -37 119 58 150 43 14 128 5 151 -16z m-2708 -150
c23 -70 25 -317 3 -335 -21 -18 -33 -4 -39 45 -3 22 -14 76 -26 120 -22 84
-30 191 -16 213 4 7 20 12 34 10 22 -2 30 -11 44 -53z m1642 -150 c43 -7 118
-43 151 -72 78 -68 106 -147 106 -291 -1 -203 -70 -415 -177 -542 -27 -31
-101 -76 -111 -66 -11 10 8 73 27 94 11 12 20 24 20 27 0 3 16 29 35 58 36 54
71 147 85 227 5 25 13 72 19 105 12 63 5 211 -10 221 -5 3 -9 13 -9 23 0 41
-114 110 -195 118 -62 7 -99 -11 -140 -67 -35 -47 -33 -93 4 -131 16 -16 34
-29 40 -29 15 0 51 42 51 60 0 25 29 60 50 60 26 0 50 -38 50 -78 0 -80 -61
-132 -155 -132 -111 0 -175 66 -175 180 0 98 33 157 116 206 38 22 132 45 164
39 8 -2 33 -6 54 -10z m-805 -80 c28 -36 35 -79 19 -112 -11 -23 -20 -29 -56
-31 -58 -4 -72 9 -72 71 0 86 64 128 109 72z m1225 -31 c9 -8 19 -27 22 -42 3
-15 8 -34 11 -42 23 -64 29 -137 22 -290 -6 -141 -11 -177 -34 -245 -15 -44
-33 -91 -40 -105 -6 -14 -31 -65 -55 -114 -45 -94 -77 -131 -149 -171 -69 -39
-77 -23 -29 57 101 170 185 352 208 457 12 52 10 179 -6 398 -5 60 -3 87 6 98
16 19 25 19 44 -1z m-2209 -133 c3 -10 5 -51 4 -92 -1 -69 18 -279 26 -288 7
-6 -25 -61 -34 -61 -55 0 -101 100 -101 222 0 61 5 89 26 135 44 100 66 124
79 84z m284 -48 c-4 -27 -18 -79 -32 -118 -13 -38 -32 -104 -41 -146 -17 -78
-29 -99 -54 -99 -25 0 -10 180 22 259 37 92 74 151 95 151 15 0 17 -6 10 -47z
m2219 -10 c15 -21 16 -125 0 -141 -7 -7 -27 -12 -44 -12 -45 0 -74 41 -74 107
0 27 6 55 13 62 16 17 88 6 105 -16z m356 -124 c36 -28 48 -61 40 -110 -9 -53
-44 -86 -109 -99 -108 -22 -162 43 -119 145 24 59 59 85 114 85 33 0 55 -6 74
-21z m-1080 -114 c19 -29 21 -109 4 -166 -11 -34 -17 -39 -38 -37 -21 3 -26 9
-31 48 -3 25 -9 63 -13 85 -6 33 -4 45 14 68 27 33 43 34 64 2z m1444 -34 c18
-6 44 -20 57 -33 21 -19 25 -32 25 -85 0 -55 -3 -64 -26 -82 -47 -37 -117 -23
-147 29 -10 15 -17 48 -17 73 0 36 6 51 29 76 32 35 33 35 79 22z m-728 -101
c23 -23 27 -87 9 -123 -31 -61 -74 -82 -100 -51 -19 24 4 153 32 177 27 22 35
21 59 -3z m-1396 -20 c36 -13 56 -59 56 -129 0 -52 -3 -62 -26 -80 -19 -15
-41 -21 -76 -21 -61 0 -94 30 -104 95 -15 105 58 171 150 135z m2479 -71 c31
-17 37 -28 37 -76 0 -107 -125 -142 -166 -45 -20 48 -18 82 8 109 24 26 83 31
121 12z m-3639 -82 c33 -33 61 -130 61 -212 0 -60 -3 -70 -19 -73 -22 -5 -99
68 -117 109 -16 40 -8 177 11 189 23 15 39 12 64 -13z m3010 -63 c12 -31 -20
-60 -86 -78 -373 -104 -575 -254 -727 -540 -54 -102 -57 -107 -98 -153 -45
-52 -63 -55 -63 -10 0 84 80 279 153 374 87 113 304 303 346 303 6 0 19 4 29
10 64 35 124 55 257 85 125 29 181 31 189 9z m1020 -135 c57 -68 19 -174 -61
-167 -29 2 -42 10 -60 37 -30 44 -38 94 -23 131 12 28 16 30 65 30 47 0 56 -4
79 -31z m-2938 -64 c38 -29 83 -100 93 -148 23 -106 -26 -194 -126 -223 -52
-15 -60 -15 -120 1 -52 14 -70 25 -101 61 -60 67 -80 170 -47 234 50 97 218
139 301 75z m914 -180 c29 -35 -44 -147 -143 -218 -36 -26 -70 -47 -76 -47 -6
0 -11 17 -11 38 0 38 35 115 80 172 14 18 27 36 30 40 21 29 99 40 120 15z
m-1900 -60 c37 -19 60 -63 60 -115 0 -40 -4 -44 -45 -40 -53 5 -105 71 -105
133 0 35 2 37 30 37 17 0 44 -7 60 -15z m1250 -57 c-1 -51 -27 -177 -48 -228
-18 -45 -89 -115 -144 -143 -51 -26 -111 -35 -134 -19 -21 13 -25 50 -10 86
12 29 27 42 73 64 32 15 67 34 78 42 34 24 81 91 105 150 48 115 80 135 80 48z
m2876 -20 c65 -60 81 -86 88 -149 9 -72 -8 -94 -66 -86 -58 8 -99 63 -137 186
-22 71 -14 91 35 91 27 0 45 -9 80 -42z m-985 1 c24 -25 29 -40 29 -79 0 -48
-8 -60 -57 -87 -30 -17 -84 -16 -109 1 -33 23 -49 86 -34 132 17 51 35 63 93
64 42 0 53 -4 78 -31z m532 -19 c38 -10 89 -29 113 -40 42 -21 94 -71 94 -92
0 -12 -42 -7 -125 17 -85 24 -189 18 -211 -13 -16 -24 -42 -23 -96 5 -60 30
-22 107 64 130 62 16 85 15 161 -7z m-931 -260 c21 -6 44 -21 53 -33 21 -30
19 -96 -4 -133 -16 -27 -28 -33 -68 -39 -65 -8 -100 6 -118 50 -47 111 21 187
137 155z m1089 -2 c46 -15 138 -87 193 -150 37 -43 43 -54 31 -61 -9 -4 -25
-5 -38 -1 -47 14 -293 137 -314 157 -23 20 -30 47 -16 60 11 11 107 8 144 -5z
m-430 -52 c73 -22 169 -75 214 -117 110 -103 152 -273 104 -420 -38 -118 -90
-184 -181 -230 -60 -31 -213 -30 -263 1 -84 52 -135 148 -135 256 0 65 10 92
50 138 27 31 38 36 75 36 51 0 110 -23 119 -46 10 -26 -2 -51 -28 -58 -65 -16
-114 -91 -95 -145 14 -39 96 -91 143 -91 77 0 176 72 206 149 38 97 2 247 -80
331 -59 60 -118 80 -242 80 -181 0 -288 -79 -330 -243 -22 -89 -23 -184 -3
-274 41 -180 74 -223 391 -513 242 -222 343 -321 375 -368 67 -99 24 -124 -68
-40 -79 71 -143 127 -189 163 -21 17 -61 50 -90 75 -28 25 -93 81 -144 125
-197 168 -241 211 -286 280 -35 52 -69 132 -84 195 -5 19 -13 53 -19 75 -6 22
-11 94 -11 160 -1 104 2 129 24 188 47 130 85 176 199 242 105 61 247 82 348
51z m-1671 -122 c30 -7 79 -25 107 -39 29 -14 56 -25 60 -25 3 0 30 -18 60
-40 39 -30 53 -47 53 -65 0 -29 -9 -30 -88 -10 -180 47 -265 65 -297 65 -71 0
-115 88 -62 125 24 17 67 14 167 -11z m2607 -16 c19 -18 23 -32 23 -84 0 -35
-4 -74 -9 -87 -11 -30 -64 -51 -91 -37 -27 14 -50 83 -50 150 0 50 4 61 23 75
28 20 72 13 104 -17z m-3482 -139 c11 -20 14 -41 9 -62 -9 -44 -20 -55 -60
-63 -69 -13 -110 48 -80 120 14 35 17 36 65 36 46 0 52 -3 66 -31z m3105 18
c8 -7 24 -28 34 -47 11 -19 43 -66 71 -105 86 -117 113 -185 72 -185 -14 0
-133 121 -220 222 -48 56 -63 110 -34 121 22 10 62 6 77 -6z m-2878 -34 c24
-21 25 -99 1 -125 -23 -25 -98 -25 -112 0 -14 26 -5 101 15 123 21 23 71 25
96 2z m-1214 -39 c26 -18 29 -58 7 -109 -18 -45 -58 -62 -92 -40 -35 23 -44
55 -29 106 17 57 67 76 114 43z m1865 -109 c62 -30 143 -107 132 -125 -17 -28
-258 17 -300 55 -27 26 -33 63 -13 83 22 22 122 14 181 -13z m-1742 -5 c14 -8
19 -21 19 -53 0 -80 -52 -113 -99 -63 -27 28 -23 70 10 105 22 23 41 26 70 11z
m2594 -34 c38 -16 55 -42 55 -83 0 -49 -25 -73 -75 -73 -57 0 -75 24 -75 101
0 46 3 58 18 62 31 8 42 7 77 -7z m1335 -31 c29 -31 38 -89 39 -243 1 -125
-15 -182 -50 -182 -23 0 -26 15 -33 150 -2 58 -9 118 -15 134 -13 33 -18 137
-7 154 12 20 41 14 66 -13z m-2887 -116 c19 -26 19 -29 3 -77 -13 -40 -24 -54
-51 -66 -89 -42 -157 74 -85 145 25 25 36 30 71 27 32 -2 47 -10 62 -29z
m-1310 -121 c9 -11 17 -33 17 -48 0 -47 -28 -70 -92 -77 l-58 -6 -14 34 c-19
45 -2 88 45 112 40 20 76 15 102 -15z m983 17 c29 -19 39 -93 17 -117 -20 -22
-54 -23 -93 -3 -25 13 -30 22 -30 53 0 45 8 58 40 71 35 14 43 13 66 -4z
m3562 4 c35 -12 50 -46 52 -119 2 -63 2 -64 -20 -88 -29 -31 -75 -29 -97 5
-13 19 -17 47 -18 107 0 76 1 81 25 93 14 7 25 13 26 13 1 0 15 -5 32 -11z
m-577 -115 c10 -12 10 -24 1 -60 -17 -63 -35 -87 -105 -139 -58 -44 -86 -53
-78 -24 2 8 7 33 12 56 12 62 43 117 86 152 42 35 64 39 84 15z m-928 -75 c15
-16 27 -40 27 -53 0 -13 3 -37 6 -54 6 -28 3 -32 -35 -51 -48 -25 -63 -26
-102 -5 -68 35 -81 174 -19 197 33 13 95 -4 123 -34z m-3242 -208 l23 -19 -17
-55 c-21 -66 -35 -79 -79 -75 -47 4 -61 36 -41 94 24 70 69 92 114 55z m4459
-59 c36 -27 58 -93 41 -125 -14 -27 -60 -57 -87 -57 -28 0 -81 41 -98 77 -24
51 -21 107 7 121 49 24 89 19 137 -16z m-3294 -23 c9 -7 14 -31 14 -61 0 -62
-31 -98 -84 -98 -45 0 -66 29 -66 90 1 47 12 69 44 87 21 11 68 2 92 -18z
m2358 -63 c106 -44 101 -186 -7 -186 -46 0 -102 24 -122 54 -8 11 -15 38 -15
60 0 75 62 106 144 72z m361 -279 c29 -40 45 -109 33 -152 -9 -34 -49 -81 -93
-110 -26 -17 -47 -20 -153 -20 -118 0 -125 1 -143 24 -42 51 -16 67 119 73
123 6 148 15 168 63 12 30 12 38 -6 77 -29 64 -27 78 14 78 28 0 40 -7 61 -33z
m-760 -207 c43 -27 57 -60 42 -99 -16 -42 -58 -59 -92 -37 -29 19 -48 60 -40
86 7 21 43 70 52 70 3 0 20 -9 38 -20z"/>
<path d="M5920 17234 c0 -4 14 -22 31 -42 18 -20 43 -60 56 -89 27 -58 43 -65
65 -30 17 26 38 104 38 141 l0 26 -95 0 c-52 0 -95 -3 -95 -6z"/>
<path d="M5665 17166 c-52 -23 -113 -92 -120 -137 -23 -138 63 -249 193 -249
62 0 98 13 135 48 104 98 88 265 -32 329 -50 26 -127 30 -176 9z"/>
<path d="M5456 16765 c-11 -29 -18 -57 -17 -61 2 -10 124 -5 135 6 7 7 -82
110 -96 110 -2 0 -12 -25 -22 -55z"/>
<path d="M4350 16077 c-19 -12 -43 -37 -53 -55 -16 -28 -17 -37 -7 -62 37 -89
109 -111 173 -51 62 57 72 117 28 162 -37 37 -92 39 -141 6z"/>
<path d="M6607 15941 c-37 -24 -55 -51 -72 -108 -54 -179 33 -312 221 -339
101 -15 196 56 219 164 30 141 -121 302 -282 302 -40 0 -67 -6 -86 -19z m241
-166 c18 -21 22 -34 17 -59 -14 -68 -97 -96 -175 -58 -32 15 -35 21 -38 64 -2
37 1 51 19 69 19 19 29 21 87 16 56 -4 70 -9 90 -32z"/>
<path d="M6330 14133 c-69 -26 -66 -117 8 -195 30 -32 42 -34 82 -13 20 10 33
28 41 56 11 35 10 45 -5 74 -33 61 -85 94 -126 78z"/>
<path d="M4321 19377 c-22 -27 -42 -165 -57 -396 -9 -130 -13 -276 -10 -326
21 -337 35 -454 72 -585 43 -151 121 -323 198 -436 75 -111 80 -117 104 -110
33 11 274 266 305 324 27 49 28 57 24 155 -9 212 -95 450 -229 627 -54 72
-174 201 -231 247 -22 19 -27 31 -27 68 0 39 3 45 21 45 45 0 236 -174 337
-307 59 -78 143 -232 177 -324 31 -84 60 -224 71 -344 8 -91 8 -91 62 -59 69
41 140 74 157 74 9 0 30 7 46 16 29 14 30 18 24 57 -10 62 -52 212 -74 262
-42 97 -107 222 -142 275 -90 137 -247 318 -375 435 -122 111 -287 245 -302
245 -7 0 -12 3 -12 8 0 10 -94 62 -113 62 -8 0 -19 -6 -26 -13z m294 -787 c72
-12 106 -41 80 -70 -23 -25 -88 -44 -129 -36 -40 8 -66 38 -66 77 0 40 19 45
115 29z m129 -299 c62 -10 91 -40 74 -76 -12 -27 -34 -35 -105 -35 -81 0 -103
12 -103 58 0 62 22 71 134 53z m70 -310 c22 -24 31 -83 17 -110 -33 -61 -191
9 -191 85 0 32 25 43 96 44 47 0 65 -4 78 -19z"/>
<path d="M8669 17740 c-75 -24 -115 -46 -167 -88 -92 -75 -122 -206 -85 -373
19 -92 20 -92 118 -4 37 33 83 71 101 84 37 26 41 45 19 76 -21 27 -10 114 17
138 30 25 60 21 117 -18 28 -19 59 -35 68 -35 25 0 173 97 173 113 0 21 -71
84 -120 106 -58 26 -163 27 -241 1z"/>
<path d="M11015 16885 c-110 -18 -172 -37 -262 -81 -229 -113 -416 -322 -518
-579 -83 -207 -112 -446 -80 -655 25 -163 92 -416 140 -525 8 -16 25 -57 39
-90 29 -70 146 -317 217 -458 94 -187 189 -456 225 -637 57 -286 35 -507 -71
-729 -116 -240 -305 -409 -507 -455 -109 -25 -135 -39 -143 -78 -33 -149 -154
-408 -232 -493 -37 -40 -63 -78 -63 -91 0 -15 48 -30 175 -52 131 -24 454 -23
555 1 380 89 672 293 884 619 71 110 165 307 199 418 68 226 84 372 67 603 -6
94 -16 180 -20 191 -5 12 -18 62 -29 111 -37 162 -78 285 -153 455 -37 84
-166 332 -217 418 -17 29 -31 55 -31 58 0 2 -22 39 -48 82 -27 42 -65 108 -86
146 -21 37 -54 96 -75 130 -89 146 -179 348 -204 456 -23 95 -40 225 -33 246
3 11 10 49 15 85 24 171 131 295 314 364 56 21 84 25 170 25 121 0 150 -9 294
-84 49 -26 120 -112 160 -195 35 -72 36 -79 36 -185 0 -103 -2 -116 -30 -176
-35 -74 -65 -110 -109 -133 -73 -38 -189 -33 -230 8 -19 19 -24 35 -24 74 0
43 4 52 29 70 16 12 33 21 38 21 5 0 24 14 41 31 53 52 40 128 -31 182 -69 52
-149 43 -242 -29 -61 -46 -80 -94 -80 -204 0 -86 3 -101 32 -160 51 -105 131
-179 253 -234 178 -79 431 -8 598 167 28 30 52 59 52 63 0 4 13 28 28 53 128
211 79 567 -115 839 -152 213 -407 372 -653 408 -113 16 -168 16 -275 -1z
m273 -210 c54 -16 69 -37 58 -81 -8 -29 -39 -38 -102 -31 -52 5 -80 27 -89 68
-13 59 33 73 133 44z m-372 -11 c31 -15 34 -20 34 -58 0 -74 -59 -136 -131
-136 -63 0 -84 23 -77 85 6 47 42 112 68 119 34 9 74 5 106 -10z m732 -138
c29 -8 60 -20 68 -26 19 -17 18 -53 -4 -80 -16 -20 -24 -22 -57 -16 -71 14
-148 116 -97 129 29 8 35 7 90 -7z m-1056 -216 c29 -30 30 -33 24 -91 -9 -80
-32 -125 -72 -144 -59 -28 -107 -16 -132 32 -20 37 -15 133 9 173 29 49 47 60
97 60 35 0 49 -6 74 -30z m-91 -519 c52 -35 77 -87 59 -121 -14 -26 -50 -26
-83 0 -34 27 -63 25 -83 -5 -22 -34 -13 -60 46 -127 42 -47 129 -118 145 -118
2 0 33 -19 69 -41 74 -46 86 -75 41 -99 -34 -18 -75 -4 -182 66 -170 110 -215
171 -215 290 1 82 15 118 62 158 42 35 85 34 141 -3z m-21 -527 c34 -33 34
-35 20 -62 -12 -20 -25 -28 -51 -30 -43 -4 -67 20 -76 72 -12 74 42 85 107 20z
m325 -200 c60 -28 127 -97 169 -174 32 -58 60 -216 51 -279 -7 -44 -111 -258
-143 -294 -11 -12 -27 -17 -51 -15 -30 3 -36 7 -39 29 -3 25 56 150 104 225
26 39 26 213 0 262 -42 81 -148 169 -191 158 -47 -12 -42 -77 18 -241 16 -44
31 -95 34 -112 4 -29 2 -33 -16 -33 -12 0 -44 21 -71 46 -57 53 -83 118 -95
241 -8 85 3 128 44 167 53 51 109 57 186 20z m420 -626 c20 -19 26 -34 29 -78
4 -71 -6 -90 -47 -90 -58 0 -97 49 -97 122 0 34 5 50 18 57 29 17 69 12 97
-11z m34 -288 c56 -28 99 -67 148 -133 45 -62 54 -94 28 -103 -29 -11 -65 7
-131 66 -37 33 -82 66 -100 75 -44 21 -97 19 -125 -4 -24 -19 -24 -19 -4 -41
l20 -22 -29 -24 c-35 -31 -79 -26 -113 12 -36 40 -31 89 13 131 52 48 88 61
177 62 59 1 87 -4 116 -19z m27 -375 c62 -31 132 -97 152 -144 23 -54 19 -168
-7 -222 -53 -108 -102 -160 -237 -252 -125 -84 -189 -117 -226 -117 -47 0 -58
10 -58 50 0 38 0 38 84 78 246 118 388 283 347 404 -16 44 -59 91 -98 107 -36
15 -108 8 -134 -12 -37 -29 -33 -92 7 -107 33 -13 31 -52 -3 -85 -37 -33 -58
-39 -93 -25 -59 24 -68 139 -20 235 52 102 69 113 171 114 50 1 76 -5 115 -24z
m104 -737 c24 -26 25 -53 1 -93 -21 -36 -103 -61 -145 -45 -34 13 -37 64 -5
81 12 6 42 26 66 45 53 40 56 41 83 12z m-369 -198 c96 -29 129 -78 129 -188
0 -154 -79 -236 -226 -237 -80 0 -108 15 -117 63 -7 34 6 64 39 95 42 39 70
42 105 12 38 -31 40 -31 72 1 54 53 39 132 -30 160 -32 14 -44 14 -111 -1
-140 -31 -193 -108 -218 -310 -18 -153 -99 -280 -196 -305 -24 -6 -59 -16 -79
-21 -48 -12 -126 -11 -150 1 -46 25 -7 65 89 91 95 25 114 33 151 64 44 38 69
91 81 175 21 150 37 199 86 275 44 67 84 95 174 122 94 27 122 28 201 3z
m-632 -401 c44 -19 44 -20 25 -39 -26 -25 -137 -60 -191 -60 -30 0 -49 6 -63
20 -23 23 -24 31 -7 52 39 50 157 64 236 27z"/>
<path d="M14292 16720 c-41 -10 -72 -37 -72 -63 0 -31 36 -78 90 -117 177
-131 364 -348 547 -639 16 -24 43 -66 61 -92 17 -27 32 -53 32 -58 0 -5 3 -11
8 -13 8 -3 92 -124 92 -132 0 -3 18 -31 40 -63 48 -69 42 -60 135 -201 41 -62
80 -119 87 -127 27 -30 38 -44 38 -50 0 -4 11 -21 24 -38 47 -62 266 -421 266
-436 0 -9 -8 -28 -18 -43 -36 -55 -177 -263 -182 -268 -3 -3 -19 -25 -35 -50
-48 -72 -158 -223 -178 -245 -31 -33 -103 -128 -116 -153 -7 -13 -40 -59 -74
-102 -34 -43 -73 -95 -87 -114 -14 -20 -35 -49 -46 -64 -30 -37 -185 -233
-204 -256 -80 -99 -201 -227 -293 -311 -215 -196 -220 -203 -171 -252 l26 -25
501 4 c443 4 506 7 534 22 53 27 58 48 33 124 -28 81 -24 203 7 267 11 22 29
58 39 80 21 47 44 84 113 180 28 39 71 100 97 138 25 37 51 73 58 80 6 6 27
32 46 57 19 25 37 47 40 50 3 3 30 39 60 80 30 41 59 80 65 86 5 7 19 24 30
40 106 148 127 155 198 72 24 -29 57 -73 72 -98 15 -25 31 -47 34 -50 12 -10
61 -79 61 -85 0 -4 12 -21 26 -39 22 -27 250 -370 280 -422 39 -67 94 -188
109 -236 19 -66 13 -112 -22 -176 -17 -31 -23 -55 -21 -85 3 -38 7 -44 43 -62
39 -19 61 -20 618 -21 557 -1 579 -1 602 18 36 28 33 68 -7 105 -227 209 -296
291 -496 588 -34 50 -86 126 -115 170 -30 44 -77 114 -104 155 -27 41 -75 112
-106 158 -31 46 -69 104 -86 130 -16 26 -53 80 -80 121 -28 40 -51 75 -51 77
0 6 -165 247 -242 354 -37 52 -68 104 -68 114 0 22 37 98 59 124 9 9 29 37 45
62 16 25 70 98 120 163 50 65 97 128 105 140 20 30 149 204 184 247 15 19 31
40 35 45 67 91 82 114 82 123 0 5 7 16 17 23 9 8 34 38 56 68 22 30 46 62 53
70 7 9 32 41 57 71 24 31 52 69 63 85 10 17 21 32 24 35 3 3 32 39 65 80 87
109 207 242 311 345 123 123 146 164 110 201 -34 34 -68 37 -433 35 -199 -1
-372 -4 -385 -6 -12 -3 -47 -1 -78 4 -62 10 -177 -9 -191 -31 -17 -26 -9 -72
21 -120 26 -42 30 -57 30 -123 0 -50 -7 -95 -20 -132 -24 -69 -115 -221 -214
-356 -39 -55 -86 -120 -104 -145 -19 -26 -48 -64 -65 -84 -18 -20 -63 -81
-102 -134 -117 -161 -200 -259 -222 -262 -16 -2 -36 18 -92 98 -39 55 -71 105
-71 110 0 6 -4 10 -9 10 -6 0 -38 45 -73 100 -35 55 -80 126 -100 158 -21 31
-41 64 -45 72 -3 8 -20 35 -37 60 -17 25 -36 54 -43 65 -228 373 -218 350
-218 521 0 158 -3 167 -65 184 -22 6 -173 10 -367 10 -180 -1 -413 1 -518 4
-104 2 -205 1 -223 -4z"/>
<path d="M19745 16714 c-63 -21 -88 -79 -59 -136 9 -18 38 -56 63 -85 71 -80
79 -150 31 -268 -23 -56 -28 -70 -45 -120 -10 -27 -21 -59 -25 -70 -5 -11 -20
-54 -35 -95 -34 -95 -105 -280 -116 -302 -5 -10 -9 -27 -9 -37 0 -11 -4 -22
-9 -25 -5 -3 -12 -18 -15 -33 -8 -34 -91 -257 -136 -368 -5 -11 -13 -33 -18
-50 -6 -16 -21 -59 -35 -95 -13 -36 -52 -139 -87 -230 -34 -91 -75 -199 -90
-240 -72 -196 -102 -275 -154 -403 -31 -76 -56 -143 -56 -148 0 -4 -11 -32
-24 -61 -13 -29 -32 -75 -42 -103 -9 -27 -21 -54 -26 -59 -4 -6 -8 -17 -8 -25
0 -8 -15 -49 -34 -91 -19 -41 -51 -115 -71 -165 -110 -264 -190 -379 -362
-522 -76 -63 -84 -126 -19 -157 30 -14 94 -16 498 -16 437 0 465 1 494 19 48
29 51 85 7 135 -12 14 -35 49 -49 78 -25 49 -27 63 -28 173 -1 118 10 193 41
285 23 66 92 210 120 248 48 65 15 62 743 62 510 0 665 -3 683 -12 28 -17 77
-60 77 -69 0 -4 15 -34 34 -66 57 -103 103 -277 121 -460 7 -74 -16 -149 -68
-221 -51 -71 -53 -89 -11 -128 19 -18 49 -36 67 -39 18 -3 287 -5 599 -3 l566
3 26 24 c14 14 26 30 26 37 0 28 -32 68 -122 154 -91 86 -167 187 -210 280
-33 72 -70 156 -78 175 -4 11 -20 52 -36 90 -15 39 -38 93 -51 122 -12 28 -23
55 -23 60 0 4 -11 35 -25 68 -38 94 -121 314 -140 375 -10 30 -21 60 -25 65
-3 6 -15 37 -25 70 -10 33 -27 79 -37 103 -10 24 -26 62 -34 85 -9 23 -22 56
-29 72 -7 17 -18 48 -25 70 -7 22 -16 48 -21 57 -5 10 -23 59 -39 110 -17 51
-35 102 -39 113 -5 11 -17 43 -26 70 -10 28 -21 59 -25 70 -35 86 -90 239 -90
249 0 7 -9 30 -19 52 -11 22 -23 54 -26 70 -4 16 -10 38 -15 49 -39 91 -90
226 -90 237 0 7 -12 36 -25 63 -14 28 -25 58 -25 67 0 9 -4 19 -9 22 -5 3 -11
18 -14 33 -2 16 -10 44 -17 63 -8 19 -24 67 -38 105 -13 39 -28 79 -33 90 -4
11 -20 56 -34 100 -14 44 -30 87 -34 95 -5 9 -12 30 -15 47 -4 18 -16 49 -26
70 -9 21 -21 54 -25 73 -18 83 -59 129 -130 144 -17 4 -216 8 -442 10 -309 2
-421 0 -448 -10z m522 -1084 c14 -30 36 -79 49 -108 13 -29 24 -55 24 -58 0
-3 6 -20 13 -37 8 -18 20 -50 27 -72 7 -22 18 -53 25 -70 25 -56 85 -212 85
-220 0 -4 6 -21 14 -38 7 -18 21 -54 31 -82 9 -27 20 -59 25 -70 5 -11 13 -36
19 -55 5 -19 21 -66 36 -105 15 -38 36 -95 47 -125 11 -30 28 -73 39 -94 21
-44 25 -111 8 -122 -15 -9 -890 -17 -946 -9 -61 9 -63 30 -19 161 20 58 43
120 50 138 8 17 34 90 56 161 23 72 46 139 50 150 4 11 15 40 25 65 9 25 21
53 26 62 5 10 9 26 9 36 0 10 7 27 15 38 8 10 15 29 15 41 0 12 4 24 9 28 5 3
13 20 16 37 10 45 97 256 136 330 5 10 9 23 9 29 0 6 10 27 21 46 21 33 22 34
42 16 11 -10 31 -43 44 -73z"/>
<path d="M23079 16713 c-31 -19 -59 -62 -59 -91 0 -27 27 -91 55 -128 22 -29
44 -73 81 -159 28 -67 32 -315 29 -1681 -3 -1234 -6 -1362 -33 -1454 -25 -82
-71 -176 -105 -212 -6 -7 -21 -30 -31 -51 -17 -33 -18 -40 -5 -63 7 -14 27
-33 44 -42 27 -16 131 -17 1260 -17 1316 0 1310 0 1367 49 40 36 70 103 79
181 5 39 16 124 24 190 9 66 20 195 26 287 12 188 5 223 -55 259 -60 37 -118
16 -197 -68 -206 -222 -265 -258 -493 -298 -72 -12 -182 -15 -585 -15 -278 0
-502 4 -510 9 -25 16 -28 233 -25 1456 4 1258 8 1454 30 1497 8 15 14 32 14
38 0 6 19 42 43 78 24 37 52 88 61 114 18 46 18 47 -3 76 -44 62 -44 62 -538
62 -396 -1 -451 -2 -474 -17z"/>
<path d="M27742 16720 c-40 -9 -92 -56 -92 -82 0 -34 27 -83 72 -128 24 -26
52 -63 62 -84 25 -54 20 -98 -29 -221 -7 -16 -17 -43 -23 -60 -14 -40 -61
-165 -71 -190 -5 -11 -17 -47 -27 -80 -10 -33 -26 -76 -35 -95 -9 -19 -20 -51
-24 -70 -4 -19 -11 -39 -15 -45 -3 -5 -17 -39 -30 -75 -43 -120 -152 -405
-166 -434 -8 -16 -14 -35 -14 -42 0 -7 -6 -28 -14 -46 -8 -18 -31 -78 -51
-133 -21 -55 -55 -147 -78 -205 -22 -58 -43 -114 -47 -125 -5 -11 -15 -36 -24
-57 -9 -20 -16 -41 -16 -46 0 -6 -12 -39 -26 -74 -14 -35 -30 -72 -34 -83 -5
-11 -23 -57 -41 -103 -17 -45 -36 -85 -40 -88 -5 -3 -9 -18 -9 -33 0 -15 -4
-31 -9 -37 -5 -5 -16 -34 -26 -64 -10 -30 -21 -59 -25 -65 -4 -5 -10 -19 -13
-30 -11 -42 -56 -153 -91 -228 -20 -43 -36 -87 -36 -97 0 -10 -4 -21 -9 -24
-4 -3 -16 -27 -26 -53 -19 -51 -87 -195 -108 -228 -80 -128 -122 -187 -159
-225 -48 -49 -128 -120 -135 -120 -2 0 -12 -7 -20 -16 -21 -21 -19 -72 4 -90
40 -30 94 -34 536 -34 402 0 452 2 477 17 52 30 50 75 -6 153 -58 81 -67 113
-65 230 2 135 31 266 81 375 16 33 40 85 53 115 25 55 41 73 84 98 29 16 1266
18 1341 2 83 -18 125 -66 187 -215 9 -22 20 -47 24 -55 31 -59 71 -257 71
-348 0 -78 -9 -104 -65 -182 -61 -86 -62 -139 -4 -173 29 -16 70 -18 521 -17
756 0 758 1 758 66 0 28 -13 47 -72 110 -152 160 -220 252 -272 365 -13 30
-35 79 -49 109 -14 30 -51 120 -82 200 -31 80 -60 153 -65 162 -6 10 -10 25
-10 33 0 9 -11 40 -24 68 -13 29 -32 74 -41 102 -9 27 -20 54 -24 60 -4 5 -14
30 -21 55 -7 25 -17 50 -21 55 -3 6 -17 41 -29 78 -13 37 -27 70 -31 73 -5 3
-9 13 -9 22 0 9 -15 55 -34 102 -19 47 -46 119 -61 160 -22 63 -143 388 -189
510 -8 19 -25 64 -39 100 -58 153 -77 206 -77 218 0 7 -14 43 -31 80 -17 37
-35 78 -39 92 -5 14 -23 63 -40 110 -17 47 -34 94 -37 105 -2 11 -8 29 -13 40
-5 11 -16 45 -26 75 -17 57 -22 69 -47 135 -22 56 -61 166 -92 260 -15 44 -35
99 -46 121 -10 23 -21 55 -25 70 -13 53 -52 119 -85 143 -25 19 -52 26 -113
32 -105 10 -781 9 -824 -1z m485 -1027 c24 -36 40 -71 48 -106 3 -15 19 -58
36 -95 17 -37 44 -105 60 -152 16 -47 34 -94 40 -104 6 -11 35 -89 65 -175 30
-86 59 -165 64 -176 5 -11 16 -45 25 -76 9 -32 25 -75 35 -97 11 -23 20 -46
20 -52 0 -6 9 -28 19 -49 29 -56 61 -156 61 -190 0 -21 -7 -34 -22 -43 -31
-17 -955 -23 -975 -6 -27 22 -8 98 87 333 15 39 35 93 43 122 9 29 23 67 31
85 8 18 26 65 39 103 40 117 59 167 83 228 13 32 24 65 24 72 0 8 6 29 14 47
8 18 33 79 55 135 58 143 101 223 122 223 4 0 16 -12 26 -27z"/>
</g>
</svg>
