<?xml version="1.0" standalone="no"?>
<!DOCTYPE svg PUBLIC "-//W3C//DTD SVG 20010904//EN"
 "http://www.w3.org/TR/2001/REC-SVG-20010904/DTD/svg10.dtd">
<svg version="1.0" xmlns="http://www.w3.org/2000/svg"
 width="512.000000pt" height="512.000000pt" viewBox="0 0 512.000000 512.000000"
 preserveAspectRatio="xMidYMid meet">

<g transform="translate(0.000000,512.000000) scale(0.100000,-0.100000)"
fill="#000000" stroke="none">
<path d="M1538 4599 c-26 -15 -31 -65 -19 -188 26 -260 121 -691 249 -1131
l19 -66 -44 -74 c-189 -317 -303 -786 -303 -1248 0 -505 -143 -978 -381 -1263
-43 -52 -48 -78 -21 -102 17 -16 137 -17 1516 -17 1013 0 1504 3 1517 10 34
19 23 57 -46 148 -80 106 -193 329 -240 476 -73 223 -99 408 -115 801 -6 147
-18 307 -30 389 -46 310 -143 597 -277 819 l-36 59 51 186 c145 531 222 917
222 1112 0 100 0 100 -231 100 -212 0 -209 1 -229 -85 -52 -214 -239 -395
-455 -440 -136 -29 -266 -12 -395 52 -146 71 -272 229 -310 388 -20 86 -16 85
-234 85 -108 0 -198 -5 -208 -11z m360 -156 c72 -209 236 -370 447 -440 69
-23 97 -27 210 -27 139 -1 221 17 325 69 157 80 298 247 346 411 l15 54 125 0
c101 0 126 -3 130 -15 9 -22 -22 -249 -57 -420 -33 -160 -117 -503 -173 -700
l-33 -120 -675 -3 -675 -2 -42 149 c-143 516 -237 979 -222 1104 1 4 58 7 129
7 l127 0 23 -67z m1390 -1365 c61 -108 109 -219 153 -351 22 -65 39 -122 39
-127 0 -6 -333 -10 -924 -10 l-924 0 20 73 c41 144 126 341 194 449 l24 38
688 0 688 0 42 -72z m236 -675 c23 -133 34 -226 42 -355 l7 -118 -1017 0
-1017 0 6 88 c13 180 43 409 60 460 3 9 203 12 954 12 l949 0 16 -87z m46
-580 c1 -111 42 -447 66 -530 l6 -23 -1081 0 c-858 0 -1081 3 -1081 13 0 6 9
59 20 117 11 58 25 178 32 268 l12 162 1013 0 c557 0 1013 -3 1013 -7z m120
-720 c50 -157 121 -305 202 -425 21 -31 38 -59 38 -62 0 -4 -616 -6 -1370 -6
-837 0 -1370 4 -1370 9 0 5 18 37 41 71 58 87 150 281 185 389 l29 91 1112 0
1111 0 22 -67z"/>
</g>
</svg>
